<?xml version="1.0" encoding="UTF-8" standalone="no"?>
<!-- Created with Inkscape (http://www.inkscape.org/) -->

<svg width="2000" height="2000" viewBox="0 0 529.16666 529.16668" version="1.1" id="svg5"
    sodipodi:docname="#2. Cale.svg" inkscape:version="1.1.2 (0a00cf5339, 2022-02-04, custom)"
    inkscape:export-filename="./png/#2. Cale.png" inkscape:export-xdpi="96" inkscape:export-ydpi="96"
    xmlns:inkscape="http://www.inkscape.org/namespaces/inkscape"
    xmlns:sodipodi="http://sodipodi.sourceforge.net/DTD/sodipodi-0.dtd" xmlns="http://www.w3.org/2000/svg"
    xmlns:svg="http://www.w3.org/2000/svg">
    <sodipodi:namedview id="namedview7" pagecolor="#ffffff" bordercolor="#666666" borderopacity="1.0"
        inkscape:pageshadow="2" inkscape:pageopacity="0.0" inkscape:pagecheckerboard="false"
        inkscape:document-units="px" showgrid="false" units="px" width="1000px" inkscape:zoom="0.401"
        inkscape:cx="998.75312" inkscape:cy="1000" inkscape:window-width="1920" inkscape:window-height="1007"
        inkscape:window-x="0" inkscape:window-y="0" inkscape:window-maximized="1" inkscape:current-layer="layer1"
        inkscape:lockguides="false" lock-margins="false" />
    <defs id="defs2">
        <inkscape:path-effect effect="taper_stroke" id="path-effect26977" is_visible="true" lpeversion="1"
            stroke_width="5" attach_start="0.75" end_offset="0.75" start_smoothing="0.5" end_smoothing="0.5"
            jointype="extrapolated" start_shape="center" end_shape="center" miter_limit="100" />
        <clipPath clipPathUnits="userSpaceOnUse" id="clipPath26585">
            <ellipse
                style="fill:#b5723e;fill-opacity:1;stroke:none;stroke-width:5.74395;stroke-linecap:round;stroke-linejoin:round;stroke-miterlimit:4;stroke-dasharray:none"
                id="ellipse26587" cx="133.56097" cy="221.72835" rx="70.890396" ry="54.908821" />
        </clipPath>
    </defs>
    <g inkscape:label="Layer 1" id="layer1" inkscape:groupmode="layer">
        <g id="g121719" inkscape:label="Cat" style="display:inline"
            transform="matrix(2.0000005,0,0,2.0000005,-1.4981604,0.00115295)">
            <path id="path137981"
                style="display:inline;fill:#f1c193;fill-opacity:1;stroke:none;stroke-width:9.99999;stroke-linecap:round;stroke-linejoin:round;stroke-miterlimit:4;stroke-dasharray:none;stroke-opacity:1"
                d="M 795.76562,99.072266 C 748.64773,96.292013 600,300 600,300 c -12.14005,-2.31487 -24.34819,-4.17831 -36.62305,-5.60156 0.0173,-8.28234 -6.67385,-18.89016 -12.11718,-20.93164 -4.76124,6.17846 -27.36645,13.16403 -41.72852,17.09375 3.57725,-10.55625 1.70422,-22.8805 -6.44141,-29.84375 -11.55029,15.51911 -43.76836,27.56323 -63.02148,33.63867 C 426.77853,295.79694 413.42395,297.67142 400,300 400,300 246.06684,85.603462 200,100 c -46.06684,14.39654 -50,350 -50,350 0,0 -24.13243,23.80124 -44.08789,72.06641 -7.462021,14.11988 -35.616965,65.42411 -54.853516,73.33593 6.459624,10.28471 18.078892,14.67938 29.699218,14.83594 -5.980459,21.92664 -16.296484,49.63887 -31.65039,57.91406 5.981531,11.64451 19.004663,15.93825 30.761719,14.64063 -2.020285,19.83233 -8.804174,61.16663 -31.146485,86.28711 10.787402,12.35939 36.205572,15.28349 52.115234,12.76172 0.49925,7.70558 0.78337,29.06047 -7.255859,62.40429 12.808439,4.46736 27.686619,4.96991 39.490239,2.75977 -0.67817,6.53281 -3.30465,20.09049 -13.47461,30.98633 5.70136,2.61415 11.65442,3.36749 17.25,2.98633 -21.02922,18.44479 -38.621011,38.88995 -52.281254,61.62304 -6.316357,9.29915 -18.323917,25.11849 -29.720703,29.79883 4.366305,2.09089 8.82509,3.26561 13.179688,3.67773 C 64.959641,983.8248 62.247502,991.77715 60,1000 h 880 c -2.50326,-11.88648 -5.46904,-22.40457 -8.79883,-31.84961 7.23686,-4.03624 13.69371,-10.92152 14.31836,-16.09766 -9.0468,-0.15155 -18.9816,-7.17636 -26.18359,-13.57226 8.71911,-4.37514 15.87139,-11.8799 15.35742,-19.14649 -25.86173,-3.97091 -37.09424,-9.06527 -44.84375,-15.83593 -7.74951,-6.77066 -21.36611,-18.23363 -32.17383,-27.07617 4.6591,0.45903 9.90392,-0.16282 15.06641,-2.46876 -3.06932,-2.59869 -4.86047,-7.46788 -5.89063,-12.76562 10.31157,1.43339 21.36644,0.66006 30.25,-3.07617 -11.52932,-11.27398 -5.0054,-55.22348 -1.6875,-73.50781 14.81558,1.59975 34.27126,-2.13254 45.08789,-11.73243 -11.23827,-5.12043 -18.08447,-49.79633 -21.02148,-74.21875 12.55823,-0.84022 27.12905,-4.72658 37.45898,-15.20117 -12.82977,-3.58432 -27.2817,-31.13388 -35.75,-49.77539 12.99358,-5.48151 26.22852,-14.68993 29.31836,-25.64062 -22.25148,-5.9927 -36.30795,-29.82378 -41.96679,-41.42188 9.71524,-6.38678 17.84646,-15.39409 18.54687,-24.96094 -20.84686,-8.0074 -35.05322,-25.19806 -46.35348,-43.22461 C 864.76797,467.58238 850,450 850,450 c 0,0 -8.3925,-332.93791 -50,-350 -1.30023,-0.53319 -2.71444,-0.838049 -4.23438,-0.927734 z"
                transform="scale(0.26458333)" sodipodi:nodetypes="scccccccsccccccccccccccccccccczccccccccccccccss"
                inkscape:label="Face Base" sodipodi:insensitive="true" />
            <path id="path36581"
                style="fill:#e8ba8d;fill-opacity:1;stroke:none;stroke-width:0.999999px;stroke-linecap:butt;stroke-linejoin:miter;stroke-opacity:1"
                inkscape:label="Face Shadow"
                d="M 204.62695,99.306641 C 202.98468,99.323196 201.43959,99.550108 200,100 c -46.06684,14.39654 -50,350 -50,350 0,0 -24.13243,23.80123 -44.08789,72.06641 -7.46202,14.11986 -35.616965,65.42414 -54.853516,73.33593 6.459624,10.28474 18.078895,14.67936 29.699218,14.83594 -5.980456,21.92663 -16.296487,49.63886 -31.65039,57.91406 5.981529,11.6445 19.004663,15.93825 30.761719,14.64063 -2.020286,19.83231 -8.804174,61.16663 -31.146485,86.28711 10.787403,12.35939 36.205574,15.28349 52.115234,12.76172 0.49925,7.70558 0.78337,29.06047 -7.255859,62.40429 12.808439,4.46737 27.686619,4.96992 39.490239,2.75977 -0.67817,6.5328 -3.30465,20.09048 -13.47461,30.98633 5.70136,2.61415 11.65441,3.36749 17.25,2.98633 -21.02922,18.44481 -38.621009,38.88994 -52.281254,61.62304 -6.316358,9.29915 -18.323916,25.11849 -29.720703,29.79883 4.366307,2.09091 8.82509,3.26562 13.179688,3.67773 C 64.959642,983.8248 62.247504,991.77715 60,1000 h 153.3125 c 2.65598,-9.69094 5.36274,-16.27634 8.02539,-23.92188 -5.77115,-1.14867 -6.92548,-1.59045 -13.17969,-3.67773 10.00255,-5.22746 18.97531,-13.88941 29.29883,-29.35547 12.26671,-18.37723 27.38366,-42.16662 52.70313,-62.0664 -6.30641,0.28127 -8.86296,0.73934 -17.25,-2.98633 8.13649,-8.44188 11.57324,-17.82643 13.47461,-30.98633 -13.09582,2.32962 -31.42151,1.10801 -39.49024,-2.75977 4.654,-12.41941 8.47471,-49.72742 7.25586,-62.40429 -16.9987,3.1302 -41.68965,-1.85034 -52.11523,-12.76172 17.15555,-17.46648 27.84794,-55.26668 31.14648,-86.28711 -11.06476,2.05735 -25.52185,-2.6921 -30.76172,-14.64063 11.72602,-5.69967 26.08938,-34.44622 31.65039,-57.91406 -7.39473,1.04833 -23.3522,-3.47328 -29.69922,-14.83594 27.68694,-17.39663 54.85352,-73.33593 54.85352,-73.33593 C 292.38507,437.91236 325.43183,353.75028 378.42969,270.99414 336.52754,215.65491 243.56339,98.914131 204.62695,99.306641 Z"
                transform="scale(0.26458333)" />
            <g id="g175355" inkscape:label="Mouth">
                <ellipse
                    style="opacity:1;fill:#f1c8a2;fill-opacity:1;fill-rule:nonzero;stroke:none;stroke-width:5.43857;stroke-linecap:round;stroke-linejoin:round;stroke-miterlimit:4;stroke-dasharray:none;stroke-opacity:1"
                    id="path149914" cx="132.29167" cy="190.7536" rx="54.234341" ry="34.294209"
                    inkscape:label="Mouth Highlight" />
                <path
                    style="fill:none;stroke:#282018;stroke-width:3.96875;stroke-linecap:round;stroke-linejoin:round;stroke-miterlimit:4;stroke-dasharray:none;stroke-opacity:1"
                    d="M 105.83333,190.5 H 158.75" id="path160176" sodipodi:nodetypes="cc" inkscape:label="Lips" />
            </g>
            <g id="g175351" inkscape:label="Ear">
                <path
                    style="fill:#f1aa8b;fill-opacity:1;stroke:none;stroke-width:0.264583px;stroke-linecap:butt;stroke-linejoin:miter;stroke-opacity:1"
                    d="m 45.286682,114.43178 c -1.785867,-8.45536 2.493015,-77.374069 9.069281,-81.404993 5.501594,-3.372203 16.011318,52.145349 15.443503,55.852408 -0.567811,3.707061 -18.102184,25.300245 -24.512784,25.552585 z"
                    id="path155210" sodipodi:nodetypes="cssc" inkscape:label="Ear R" />
                <path
                    style="fill:#e8ba8d;fill-opacity:1;stroke:none;stroke-width:0.264583px;stroke-linecap:butt;stroke-linejoin:miter;stroke-opacity:1"
                    d="m 66.466744,67.961136 c 0,0 0.755018,12.830065 -3.150526,15.859668 4.506819,2.245216 8.872363,1.148934 10.113693,-2.958923 1.24133,-4.107857 -6.963167,-12.900745 -6.963167,-12.900745 z"
                    id="path158255" sodipodi:nodetypes="cccc" inkscape:label="Ear R Fur" />
                <path
                    style="fill:#f1aa8b;fill-opacity:1;stroke:none;stroke-width:0.264583px;stroke-linecap:butt;stroke-linejoin:miter;stroke-opacity:1"
                    d="m 209.28576,32.274095 c 6.92451,0.334129 11.0289,76.034665 9.7011,80.734175 -7.98909,-0.95214 -25.0372,-14.408841 -25.3457,-21.025673 -0.3085,-6.61683 8.72009,-60.042632 15.6446,-59.708502 z"
                    id="path164354" sodipodi:nodetypes="zcsz" inkscape:label="Ear L" />
                <path
                    style="fill:#f1c193;fill-opacity:1;stroke:none;stroke-width:0.264583px;stroke-linecap:butt;stroke-linejoin:miter;stroke-opacity:1"
                    d="m 199.15334,57.666643 c 0,0 -1.26404,13.566621 2.88757,20.338549 -3.32083,4.766556 -10.68174,0.86376 -11.02249,-1.326948 -0.34076,-2.190705 8.13492,-19.011601 8.13492,-19.011601 z"
                    id="path166486" sodipodi:nodetypes="ccsc" inkscape:label="Ear L Fur" />
            </g>
            <g id="g36433" inkscape:label="Seperator">
                <path
                    style="fill:#20170e;fill-opacity:1;fill-rule:nonzero;stroke:none;stroke-width:3.96875;stroke-linecap:round;stroke-linejoin:bevel;stroke-miterlimit:4;stroke-dasharray:none;stroke-opacity:1"
                    d="m 94.657431,243.44894 c -16.69296,-2.01102 -29.774046,-4.12278 -42.060986,-6.60599 v 0 c -5.196529,-1.05032 -9.048993,-1.92733 -12.056563,-2.65275 v 0 c -1.428808,-0.34462 -2.441774,-0.60123 -3.215154,-0.80176 v 0 c -0.374074,-0.097 -0.63376,-0.16586 -0.83129,-0.21879 v 0 c 0,0 -10e-7,0 -10e-7,0 -0.09597,-0.0257 -0.162137,-0.0436 -0.212407,-0.0573 0,0 0,0 0,0 -0.0061,-0.002 -0.04814,-0.0132 -0.05423,-0.0148 -0.01275,-0.004 -0.01916,-0.005 -0.01916,-0.005 0,0 0.006,0.003 0.01803,0.008 0.01189,0.006 0.02824,0.0131 0.05108,0.0236 0,0 0,0 0,0 0.04648,0.0214 0.110657,0.0507 0.200371,0.0912 0,0 0,0 0,0 v 0 c 0.182895,0.0826 0.435854,0.19546 0.787107,0.34843 v 0 c 0.718973,0.3131 1.713157,0.7351 3.067022,1.27897 v 0 c 2.814707,1.13071 6.668036,2.58325 11.681447,4.21717 v 0 c 11.325087,3.69114 25.78231,7.39481 42.04686,9.35317 11.644643,1.40246 24.548573,2.30313 38.249253,2.2092 13.69991,-0.0939 26.51381,-1.16447 38.02367,-2.71632 16.01724,-2.15887 30.18074,-6.03417 41.26549,-9.8767 v 0 c 4.87892,-1.69122 8.61462,-3.18554 11.34443,-4.34883 v 0 c 1.31026,-0.55837 2.27039,-0.99059 2.9651,-1.31143 v 0 c 0.33907,-0.1566 0.58295,-0.27203 0.75939,-0.35651 v 0 c 0,0 0,0 0,0 0.0865,-0.0414 0.14838,-0.0714 0.19318,-0.0932 0,0 0,0 0,0 0.0205,-0.0122 0.0379,-0.0204 0.0488,-0.0252 0,0 0,0 0,0 0.0111,-0.005 0.0171,-0.007 0.0178,-0.007 0,0 0,0 0,0 0,0 0,0 0,0 0,0 0,0 0,0 0,0 0,0 0,0 0,0 0,0 0,0 0,0 0,0 0,0 4e-5,-1e-5 3e-5,-1e-5 3e-5,-1e-5 0,0 1e-5,0 -3e-5,1e-5 0,0 0,0 0,0 0,0 0,0 0,0 0,0 0,0 0,0 0,0 0,0 0,0 0,0 0,0 0,0 0,0 0,0 0,0 -6.8e-4,2.7e-4 -0.007,0.003 -0.0181,0.007 0,0 0,0 0,0 -0.0113,0.004 -0.0296,0.01 -0.053,0.0144 0,0 0,0 0,0 -0.0487,0.0143 -0.11284,0.0331 -0.20576,0.0599 0,0 0,0 0,0 v 0 c -0.1914,0.0553 -0.44318,0.12737 -0.80583,0.22886 v 0 c -0.75044,0.21001 -1.73342,0.4788 -3.12127,0.84041 v 0 c -2.92832,0.76299 -6.67487,1.68507 -11.74426,2.79646 v 0 c -12.07119,2.64624 -24.86679,4.89926 -41.31402,7.11753 -11.32755,1.52727 -23.92528,2.57929 -37.38986,2.6716 -13.46381,0.0923 -26.15264,-0.79269 -37.617101,-2.17345 z"
                    id="path26503" sodipodi:nodetypes="czc" inkscape:path-effect="#path-effect26977"
                    inkscape:original-d="m 36.20761,233.09223 c 0,0 41.755074,15.40255 96.08406,15.0301 54.32899,-0.37245 94.63504,-16.23572 94.63504,-16.23572"
                    inkscape:label="Bell strap" />
                <g id="g36357" inkscape:label="Bell">
                    <circle
                        style="fill:#a1a1a1;fill-opacity:1;stroke:none;stroke-width:3.96875;stroke-linecap:round;stroke-linejoin:bevel;stroke-miterlimit:4;stroke-dasharray:none;stroke-dashoffset:0;stroke-opacity:1"
                        id="path30023" cx="132.29167" cy="254.70184" r="6.4575505" inkscape:label="Bell Base" />
                    <path
                        style="fill:#bbbbbb;fill-opacity:1;stroke:none;stroke-width:0.264583px;stroke-linecap:butt;stroke-linejoin:miter;stroke-opacity:1"
                        d="m 135.31821,250.93071 c 0.54731,1.82329 0.27476,3.55608 -0.43625,5.01491 -0.71102,1.45884 -2.16319,2.62303 -3.27037,3.27666 -1.10718,0.65364 3.47537,1.23832 5.25106,-2.39052 1.99088,-4.06864 -1.93538,-7.2034 -1.54444,-5.90105 z"
                        id="path35198" sodipodi:nodetypes="sssss" inkscape:label="Bell Highlight" />
                </g>
            </g>
            <g id="g8176" inkscape:label="Patch">
                <path id="path137981-3-6"
                    style="display:inline;fill:#d9ae84;fill-opacity:1;stroke:none;stroke-width:9.99999;stroke-linecap:round;stroke-linejoin:round;stroke-miterlimit:4;stroke-dasharray:none;stroke-opacity:1"
                    inkscape:label="Patch R"
                    d="m 52.429688,594.75195 c -0.460274,0.23207 -0.920238,0.46496 -1.371094,0.65039 6.459624,10.28474 18.078891,14.67936 29.699218,14.83594 -3.995875,14.65039 -9.939194,31.85585 -18.015624,44.14844 l 168.638672,18.32031 c 16.01917,1.74028 30.31636,-9.75621 32.05664,-25.77539 1.74028,-16.01917 -9.75622,-30.31636 -25.77539,-32.05664 z m 0.53125,70.78907 c -1.25171,0.98879 -2.527058,1.89641 -3.853516,2.61132 5.981533,11.6445 19.004663,15.93825 30.761719,14.64063 -1.054052,10.3472 -3.432779,26.55125 -8.613282,43.24805 l 152.529301,16.57031 c 16.01917,1.74027 30.31831,-9.75426 32.05859,-25.77344 1.74028,-16.01917 -9.75622,-30.31636 -25.77539,-32.05664 z m 14.154296,72.26757 c -4.496031,11.34115 -10.445203,22.33589 -18.392578,31.27149 10.787399,12.35939 36.20557,15.28346 52.115234,12.76172 0.21979,3.39232 0.35427,9.58149 -0.20117,18.12304 l 115.55469,12.55274 c 16.01917,1.74027 30.31636,-9.75622 32.05664,-25.77539 1.74027,-16.01918 -9.75427,-30.31637 -25.77344,-32.05664 z"
                    transform="scale(0.26458333)" />
                <path id="path137981-3"
                    style="display:inline;fill:#d9ae84;fill-opacity:1;stroke:none;stroke-width:9.99999;stroke-linecap:round;stroke-linejoin:round;stroke-miterlimit:4;stroke-dasharray:none;stroke-opacity:1"
                    inkscape:label="Patch L"
                    d="m 950.02539,609.44531 -187.35937,20.35352 c -16.01915,1.74028 -27.51568,16.03749 -25.7754,32.05664 1.74029,16.01919 16.03746,27.51567 32.05665,25.77539 l 171.81835,-18.66602 c -7.55597,-10.43238 -14.60534,-24.34663 -19.57617,-35.28906 12.4303,-5.2439 25.05727,-13.90256 28.83594,-24.23047 z m 0.81055,70.64258 -180.57617,19.61719 c -16.01915,1.74028 -27.51568,16.03749 -25.77539,32.05664 1.74028,16.01919 16.03944,27.51372 32.05859,25.77344 l 149.96484,-16.29102 c -3.27404,-14.46054 -5.61499,-30.84746 -7.02734,-42.5918 12.55823,-0.84022 27.12908,-4.72659 37.45898,-15.20117 -2.0041,-0.5599 -4.04924,-1.75914 -6.10351,-3.36328 z m -21.27735,73.04102 -151.70507,16.48047 c -16.01915,1.74028 -27.51373,16.03749 -25.77344,32.05664 1.74028,16.01918 16.03749,27.51567 32.05664,25.77539 l 107.11523,-11.63672 c 0.97813,-12.0284 2.8099,-23.74936 4.16211,-31.20117 14.8156,1.59976 34.27126,-2.13254 45.08789,-11.73243 -4.27559,-1.94806 -7.91261,-9.63697 -10.94336,-19.74218 z"
                    transform="scale(0.26458333)" />
            </g>
            <g id="g8220" inkscape:label="Eye">
                <path id="rect1930"
                    style="fill:#282018;fill-opacity:1;stroke-width:25.5745;stroke-linecap:round;stroke-linejoin:bevel"
                    d="m 342.08594,458.71875 c -3.20353,0.61304 -5.18802,2.53171 -5.47085,5.2441 -1.05773,6.91103 -1.59912,13.9629 -1.61509,21.03715 0,55.22847 31.34007,100 70,100 38.65993,0 70,-44.77153 70,-100 -0.0355,-5.13278 -0.34765,-10.25404 -0.93359,-15.31836 h 19.34765 c 3.03699,0 5.48047,-2.44348 5.48047,-5.48047 0,-3.03698 -2.44348,-5.48242 -5.48047,-5.48242 z"
                    transform="scale(0.26458333)" sodipodi:nodetypes="cccsccsssc" />
                <path id="rect1930-7"
                    style="display:inline;opacity:1;fill:#282018;fill-opacity:1;stroke-width:6.76659;stroke-linecap:round;stroke-linejoin:bevel"
                    d="m 140.80485,121.36934 c -0.8476,0.1622 -1.37266,0.66985 -1.44749,1.3875 -0.27986,1.82854 -0.4231,3.69435 -0.42733,5.56608 0,14.61253 8.29206,26.45833 18.52084,26.45833 10.22877,0 18.52083,-11.8458 18.52083,-26.45833 -0.009,-1.35805 -0.092,-2.71305 -0.24701,-4.05299 h 5.11907 c 0.80353,0 1.45004,-0.6465 1.45004,-1.45004 0,-0.80353 -0.64651,-1.45055 -1.45004,-1.45055 z"
                    sodipodi:nodetypes="cccsccsssc" />
            </g>
        </g>
    </g>
</svg>